{
	"asset":{
		"generator":"Khronos glTF Blender I/O v4.3.47",
		"version":"2.0"
	},
	"scene":0,
	"scenes":[
		{
			"name":"Scene",
			"nodes":[
				0
			]
		}
	],
	"nodes":[
		{
			"mesh":0,
			"name":"Mesh_0",
			"rotation":[
				-0.7071068286895752,
				0,
				0,
				0.7071068286895752
			]
		}
	],
	"materials":[
		{
			"doubleSided":true,
			"name":"Material.001",
			"pbrMetallicRoughness":{
				"baseColorTexture":{
					"index":0
				},
				"metallicFactor":0,
				"roughnessFactor":0.5
			}
		}
	],
	"meshes":[
		{
			"name":"Mesh_0",
			"primitives":[
				{
					"attributes":{
						"POSITION":0,
						"NORMAL":1,
						"TEXCOORD_0":2
					},
					"indices":3,
					"material":0
				}
			]
		}
	],
	"textures":[
		{
			"sampler":0,
			"source":0
		}
	],
	"images":[
		{
			"mimeType":"image/png",
			"name":"Mesh_0",
			"uri":"Mesh_0.png"
		}
	],
	"accessors":[
		{
			"bufferView":0,
			"componentType":5126,
			"count":426444,
			"max":[
				61.53962707519531,
				52.22243118286133,
				150.09915161132812
			],
			"min":[
				-56.332908630371094,
				-54.241214752197266,
				0
			],
			"type":"VEC3"
		},
		{
			"bufferView":1,
			"componentType":5126,
			"count":426444,
			"type":"VEC3"
		},
		{
			"bufferView":2,
			"componentType":5126,
			"count":426444,
			"type":"VEC2"
		},
		{
			"bufferView":3,
			"componentType":5125,
			"count":426444,
			"type":"SCALAR"
		}
	],
	"bufferViews":[
		{
			"buffer":0,
			"byteLength":5117328,
			"byteOffset":0,
			"target":34962
		},
		{
			"buffer":0,
			"byteLength":5117328,
			"byteOffset":5117328,
			"target":34962
		},
		{
			"buffer":0,
			"byteLength":3411552,
			"byteOffset":10234656,
			"target":34962
		},
		{
			"buffer":0,
			"byteLength":1705776,
			"byteOffset":13646208,
			"target":34963
		}
	],
	"samplers":[
		{
			"magFilter":9729,
			"minFilter":9987
		}
	],
	"buffers":[
		{
			"byteLength":15351984,
			"uri":"selina.bin"
		}
	]
}
